# xmcd
# 
# Track frame offsets:
#     182
#     19295
#     35020
#     53520
#     71907
#     84607
#     100470
#     131132
#     161595
#     178445
# 
# Disc length: 2550
# 
# Revision: 1
# Processed by: cddbd v1.5.2PL0 Copyright (c) Steve Scherf et al.
# Submitted via: fre:ac v1.0.17
# 
DISCID=9209f40a
DTITLE=The Cure - The Cure Live
DYEAR=1984
DGENRE=
TTITLE0=Shake Dog Shake
TTITLE1=Primary
TTITLE2=Charlotte Sometimes
TTITLE3=The Hanging Garden
TTITLE4=Give Me It
TTITLE5=The Walk
TTITLE6=One Hundred Years
TTITLE7=A Forest
TTITLE8=10:15 Saturday Night
TTITLE9=Killing An Arab
EXTD=
EXTT0=
EXTT1=
EXTT2=
EXTT3=
EXTT4=
EXTT5=
EXTT6=
EXTT7=
EXTT8=
EXTT9=
PLAYORDER=
